<?xml version="1.0" encoding="UTF-8" standalone="no"?>
<!DOCTYPE svg PUBLIC "-//W3C//DTD SVG 1.1//EN"
 "http://www.w3.org/Graphics/SVG/1.1/DTD/svg11.dtd">
<!-- Generated by graphviz version 2.47.1 (20210417.1919)
 -->
<!-- Title: numero igual de 0 e 1 mesma ordem Pages: 1 -->
<svg width="438pt" height="195pt"
 viewBox="0.00 0.00 438.00 195.00" xmlns="http://www.w3.org/2000/svg" xmlns:xlink="http://www.w3.org/1999/xlink">
<g id="graph0" class="graph" transform="scale(1 1) rotate(0) translate(4 191)">
<title>numero igual de 0 e 1 mesma ordem</title>
<polygon fill="white" stroke="transparent" points="-4,4 -4,-191 434,-191 434,4 -4,4"/>
<!-- Start -->
<g id="node1" class="node">
<title>Start</title>
</g>
<!-- A -->
<g id="node4" class="node">
<title>A</title>
<ellipse fill="none" stroke="black" cx="109" cy="-80" rx="18" ry="18"/>
<text text-anchor="middle" x="109" y="-76.3" font-family="Times New Roman,serif" font-size="14.00">A</text>
</g>
<!-- Start&#45;&gt;A -->
<g id="edge1" class="edge">
<title>Start&#45;&gt;A</title>
<path fill="none" stroke="black" d="M54.19,-80C62.65,-80 72.05,-80 80.6,-80"/>
<polygon fill="black" stroke="black" points="90.83,-80 80.83,-84.5 85.83,-80 80.83,-80 80.83,-80 80.83,-80 85.83,-80 80.83,-75.5 90.83,-80 90.83,-80"/>
</g>
<!-- B -->
<g id="node2" class="node">
<title>B</title>
<ellipse fill="none" stroke="black" cx="210" cy="-80" rx="18" ry="18"/>
<text text-anchor="middle" x="210" y="-76.3" font-family="Times New Roman,serif" font-size="14.00">B</text>
</g>
<!-- B&#45;&gt;B -->
<g id="edge4" class="edge">
<title>B&#45;&gt;B</title>
<path fill="none" stroke="black" d="M201.02,-95.92C198.68,-106.15 201.67,-116 210,-116 215.47,-116 218.63,-111.76 219.5,-105.95"/>
<polygon fill="black" stroke="black" points="218.98,-95.92 223.99,-105.67 219.24,-100.91 219.5,-105.9 219.5,-105.9 219.5,-105.9 219.24,-100.91 215.01,-106.14 218.98,-95.92 218.98,-95.92"/>
<text text-anchor="middle" x="210" y="-119.8" font-family="Times New Roman,serif" font-size="14.00">00R,11R</text>
</g>
<!-- C -->
<g id="node5" class="node">
<title>C</title>
<ellipse fill="none" stroke="black" cx="311" cy="-105" rx="18" ry="18"/>
<text text-anchor="middle" x="311" y="-101.3" font-family="Times New Roman,serif" font-size="14.00">C</text>
</g>
<!-- B&#45;&gt;C -->
<g id="edge5" class="edge">
<title>B&#45;&gt;C</title>
<path fill="none" stroke="black" d="M227.79,-84.24C243.1,-88.11 265.97,-93.88 283.7,-98.36"/>
<polygon fill="black" stroke="black" points="293.45,-100.82 282.66,-102.74 288.61,-99.6 283.76,-98.37 283.76,-98.37 283.76,-98.37 288.61,-99.6 284.86,-94.01 293.45,-100.82 293.45,-100.82"/>
<text text-anchor="middle" x="262.5" y="-98.8" font-family="Times New Roman,serif" font-size="14.00">ddL</text>
</g>
<!-- D -->
<g id="node3" class="node">
<title>D</title>
<ellipse fill="none" stroke="black" cx="406" cy="-136" rx="18" ry="18"/>
<text text-anchor="middle" x="406" y="-132.3" font-family="Times New Roman,serif" font-size="14.00">D</text>
</g>
<!-- D&#45;&gt;D -->
<g id="edge7" class="edge">
<title>D&#45;&gt;D</title>
<path fill="none" stroke="black" d="M397.98,-152.29C396.05,-162.39 398.72,-172 406,-172 410.66,-172 413.43,-168.06 414.32,-162.57"/>
<polygon fill="black" stroke="black" points="414.02,-152.29 418.81,-162.15 414.16,-157.29 414.31,-162.29 414.31,-162.29 414.31,-162.29 414.16,-157.29 409.81,-162.42 414.02,-152.29 414.02,-152.29"/>
<text text-anchor="middle" x="406" y="-175.8" font-family="Times New Roman,serif" font-size="14.00">00L,11L</text>
</g>
<!-- D&#45;&gt;A -->
<g id="edge8" class="edge">
<title>D&#45;&gt;A</title>
<path fill="none" stroke="black" d="M388.32,-140.13C351.1,-148.55 258.94,-164.88 188,-140 165.15,-131.99 143.69,-114.45 129.08,-100.4"/>
<polygon fill="black" stroke="black" points="121.71,-93.03 131.97,-96.91 125.25,-96.56 128.79,-100.1 128.79,-100.1 128.79,-100.1 125.25,-96.56 125.6,-103.28 121.71,-93.03 121.71,-93.03"/>
<text text-anchor="middle" x="262.5" y="-156.8" font-family="Times New Roman,serif" font-size="14.00">ddR</text>
</g>
<!-- A&#45;&gt;B -->
<g id="edge2" class="edge">
<title>A&#45;&gt;B</title>
<path fill="none" stroke="black" d="M127.24,-80C142.29,-80 164.38,-80 181.81,-80"/>
<polygon fill="black" stroke="black" points="191.95,-80 181.95,-84.5 186.95,-80 181.95,-80 181.95,-80 181.95,-80 186.95,-80 181.95,-75.5 191.95,-80 191.95,-80"/>
<text text-anchor="middle" x="157.5" y="-83.8" font-family="Times New Roman,serif" font-size="14.00">0dR</text>
</g>
<!-- H -->
<g id="node6" class="node">
<title>H</title>
<ellipse fill="none" stroke="black" cx="210" cy="-22" rx="18" ry="18"/>
<ellipse fill="none" stroke="black" cx="210" cy="-22" rx="22" ry="22"/>
<text text-anchor="middle" x="210" y="-18.3" font-family="Times New Roman,serif" font-size="14.00">H</text>
</g>
<!-- A&#45;&gt;H -->
<g id="edge3" class="edge">
<title>A&#45;&gt;H</title>
<path fill="none" stroke="black" d="M125.04,-71.19C140.03,-62.41 163.4,-48.72 181.68,-38.01"/>
<polygon fill="black" stroke="black" points="190.44,-32.87 184.09,-41.81 186.13,-35.4 181.81,-37.93 181.81,-37.93 181.81,-37.93 186.13,-35.4 179.54,-34.05 190.44,-32.87 190.44,-32.87"/>
<text text-anchor="middle" x="157.5" y="-61.8" font-family="Times New Roman,serif" font-size="14.00">ddS</text>
</g>
<!-- C&#45;&gt;D -->
<g id="edge6" class="edge">
<title>C&#45;&gt;D</title>
<path fill="none" stroke="black" d="M328.2,-110.4C342.25,-115.08 362.83,-121.94 379.16,-127.39"/>
<polygon fill="black" stroke="black" points="388.67,-130.56 377.76,-131.66 383.93,-128.98 379.19,-127.4 379.19,-127.4 379.19,-127.4 383.93,-128.98 380.61,-123.13 388.67,-130.56 388.67,-130.56"/>
<text text-anchor="middle" x="358.5" y="-127.8" font-family="Times New Roman,serif" font-size="14.00">1dL</text>
</g>
</g>
</svg>
