<?xml version="1.0" encoding="UTF-8" standalone="no"?>
<!DOCTYPE svg PUBLIC "-//W3C//DTD SVG 1.1//EN"
 "http://www.w3.org/Graphics/SVG/1.1/DTD/svg11.dtd">
<!-- Generated by graphviz version 2.47.1 (20210417.1919)
 -->
<!-- Title: tem 101 Pages: 1 -->
<svg width="431pt" height="121pt"
 viewBox="0.00 0.00 431.00 121.00" xmlns="http://www.w3.org/2000/svg" xmlns:xlink="http://www.w3.org/1999/xlink">
<g id="graph0" class="graph" transform="scale(1 1) rotate(0) translate(4 117)">
<title>tem 101</title>
<polygon fill="white" stroke="transparent" points="-4,4 -4,-117 427,-117 427,4 -4,4"/>
<!-- Start -->
<g id="node1" class="node">
<title>Start</title>
</g>
<!-- A -->
<g id="node4" class="node">
<title>A</title>
<ellipse fill="none" stroke="black" cx="109" cy="-62" rx="18" ry="18"/>
<text text-anchor="middle" x="109" y="-58.3" font-family="Times New Roman,serif" font-size="14.00">A</text>
</g>
<!-- Start&#45;&gt;A -->
<g id="edge1" class="edge">
<title>Start&#45;&gt;A</title>
<path fill="none" stroke="black" d="M54.19,-62C62.65,-62 72.05,-62 80.6,-62"/>
<polygon fill="black" stroke="black" points="90.83,-62 80.83,-66.5 85.83,-62 80.83,-62 80.83,-62 80.83,-62 85.83,-62 80.83,-57.5 90.83,-62 90.83,-62"/>
</g>
<!-- B -->
<g id="node2" class="node">
<title>B</title>
<ellipse fill="none" stroke="black" cx="205" cy="-18" rx="18" ry="18"/>
<text text-anchor="middle" x="205" y="-14.3" font-family="Times New Roman,serif" font-size="14.00">B</text>
</g>
<!-- B&#45;&gt;B -->
<g id="edge4" class="edge">
<title>B&#45;&gt;B</title>
<path fill="none" stroke="black" d="M196.64,-34.29C194.62,-44.39 197.41,-54 205,-54 209.86,-54 212.76,-50.06 213.68,-44.57"/>
<polygon fill="black" stroke="black" points="213.36,-34.29 218.17,-44.15 213.52,-39.29 213.67,-44.29 213.67,-44.29 213.67,-44.29 213.52,-39.29 209.17,-44.42 213.36,-34.29 213.36,-34.29"/>
<text text-anchor="middle" x="205" y="-57.8" font-family="Times New Roman,serif" font-size="14.00">11R</text>
</g>
<!-- C -->
<g id="node3" class="node">
<title>C</title>
<ellipse fill="none" stroke="black" cx="301" cy="-62" rx="18" ry="18"/>
<text text-anchor="middle" x="301" y="-58.3" font-family="Times New Roman,serif" font-size="14.00">C</text>
</g>
<!-- B&#45;&gt;C -->
<g id="edge5" class="edge">
<title>B&#45;&gt;C</title>
<path fill="none" stroke="black" d="M221.52,-25.27C236.08,-32.08 258.1,-42.39 275.11,-50.35"/>
<polygon fill="black" stroke="black" points="284.45,-54.72 273.49,-54.56 279.93,-52.6 275.4,-50.48 275.4,-50.48 275.4,-50.48 279.93,-52.6 277.31,-46.41 284.45,-54.72 284.45,-54.72"/>
<text text-anchor="middle" x="253" y="-48.8" font-family="Times New Roman,serif" font-size="14.00">00R</text>
</g>
<!-- C&#45;&gt;A -->
<g id="edge7" class="edge">
<title>C&#45;&gt;A</title>
<path fill="none" stroke="black" d="M283.33,-66.5C267.84,-70.43 244.05,-75.84 223,-78 207.08,-79.64 202.92,-79.64 187,-78 170.06,-76.26 151.35,-72.42 136.61,-68.93"/>
<polygon fill="black" stroke="black" points="126.67,-66.5 137.45,-64.51 131.52,-67.69 136.38,-68.88 136.38,-68.88 136.38,-68.88 131.52,-67.69 135.31,-73.25 126.67,-66.5 126.67,-66.5"/>
<text text-anchor="middle" x="205" y="-82.8" font-family="Times New Roman,serif" font-size="14.00">00R</text>
</g>
<!-- D -->
<g id="node5" class="node">
<title>D</title>
<ellipse fill="none" stroke="black" cx="401" cy="-62" rx="18" ry="18"/>
<ellipse fill="none" stroke="black" cx="401" cy="-62" rx="22" ry="22"/>
<text text-anchor="middle" x="401" y="-58.3" font-family="Times New Roman,serif" font-size="14.00">D</text>
</g>
<!-- C&#45;&gt;D -->
<g id="edge6" class="edge">
<title>C&#45;&gt;D</title>
<path fill="none" stroke="black" d="M319.07,-62C332.66,-62 352.04,-62 368.43,-62"/>
<polygon fill="black" stroke="black" points="378.68,-62 368.68,-66.5 373.68,-62 368.68,-62 368.68,-62 368.68,-62 373.68,-62 368.68,-57.5 378.68,-62 378.68,-62"/>
<text text-anchor="middle" x="349" y="-65.8" font-family="Times New Roman,serif" font-size="14.00">11R</text>
</g>
<!-- A&#45;&gt;B -->
<g id="edge3" class="edge">
<title>A&#45;&gt;B</title>
<path fill="none" stroke="black" d="M125.52,-54.73C140.08,-47.92 162.1,-37.61 179.11,-29.65"/>
<polygon fill="black" stroke="black" points="188.45,-25.28 181.31,-33.59 183.93,-27.4 179.4,-29.52 179.4,-29.52 179.4,-29.52 183.93,-27.4 177.49,-25.44 188.45,-25.28 188.45,-25.28"/>
<text text-anchor="middle" x="157" y="-48.8" font-family="Times New Roman,serif" font-size="14.00">11R</text>
</g>
<!-- A&#45;&gt;A -->
<g id="edge2" class="edge">
<title>A&#45;&gt;A</title>
<path fill="none" stroke="black" d="M102.62,-79.04C101.32,-88.86 103.45,-98 109,-98 112.47,-98 114.6,-94.43 115.4,-89.35"/>
<polygon fill="black" stroke="black" points="115.38,-79.04 119.9,-89.03 115.39,-84.04 115.4,-89.04 115.4,-89.04 115.4,-89.04 115.39,-84.04 110.9,-89.05 115.38,-79.04 115.38,-79.04"/>
<text text-anchor="middle" x="109" y="-101.8" font-family="Times New Roman,serif" font-size="14.00">00R</text>
</g>
</g>
</svg>
