<?xml version="1.0" encoding="UTF-8" standalone="no"?>
<!DOCTYPE svg PUBLIC "-//W3C//DTD SVG 1.1//EN"
 "http://www.w3.org/Graphics/SVG/1.1/DTD/svg11.dtd">
<!-- Generated by graphviz version 2.47.1 (20210417.1919)
 -->
<!-- Title: tem 101 uwu Pages: 1 -->
<svg width="431pt" height="116pt"
 viewBox="0.00 0.00 431.00 116.00" xmlns="http://www.w3.org/2000/svg" xmlns:xlink="http://www.w3.org/1999/xlink">
<g id="graph0" class="graph" transform="scale(1 1) rotate(0) translate(4 112)">
<title>tem 101 uwu</title>
<polygon fill="white" stroke="transparent" points="-4,4 -4,-112 427,-112 427,4 -4,4"/>
<!-- Start -->
<g id="node1" class="node">
<title>Start</title>
</g>
<!-- A -->
<g id="node2" class="node">
<title>A</title>
<ellipse fill="none" stroke="black" cx="109" cy="-22" rx="18" ry="18"/>
<text text-anchor="middle" x="109" y="-18.3" font-family="Times New Roman,serif" font-size="14.00">A</text>
</g>
<!-- Start&#45;&gt;A -->
<g id="edge1" class="edge">
<title>Start&#45;&gt;A</title>
<path fill="none" stroke="black" d="M54.19,-22C62.65,-22 72.05,-22 80.6,-22"/>
<polygon fill="black" stroke="black" points="90.83,-22 80.83,-26.5 85.83,-22 80.83,-22 80.83,-22 80.83,-22 85.83,-22 80.83,-17.5 90.83,-22 90.83,-22"/>
</g>
<!-- A&#45;&gt;A -->
<g id="edge2" class="edge">
<title>A&#45;&gt;A</title>
<path fill="none" stroke="black" d="M102.62,-39.04C101.32,-48.86 103.45,-58 109,-58 112.47,-58 114.6,-54.43 115.4,-49.35"/>
<polygon fill="black" stroke="black" points="115.38,-39.04 119.9,-49.03 115.39,-44.04 115.4,-49.04 115.4,-49.04 115.4,-49.04 115.39,-44.04 110.9,-49.05 115.38,-39.04 115.38,-39.04"/>
<text text-anchor="middle" x="109" y="-61.8" font-family="Times New Roman,serif" font-size="14.00">00R</text>
</g>
<!-- B -->
<g id="node4" class="node">
<title>B</title>
<ellipse fill="none" stroke="black" cx="205" cy="-57" rx="18" ry="18"/>
<text text-anchor="middle" x="205" y="-53.3" font-family="Times New Roman,serif" font-size="14.00">B</text>
</g>
<!-- A&#45;&gt;B -->
<g id="edge3" class="edge">
<title>A&#45;&gt;B</title>
<path fill="none" stroke="black" d="M126.37,-28.1C140.66,-33.42 161.64,-41.23 178.18,-47.39"/>
<polygon fill="black" stroke="black" points="187.81,-50.97 176.87,-51.7 183.13,-49.23 178.44,-47.48 178.44,-47.48 178.44,-47.48 183.13,-49.23 180.01,-43.27 187.81,-50.97 187.81,-50.97"/>
<text text-anchor="middle" x="157" y="-46.8" font-family="Times New Roman,serif" font-size="14.00">11R</text>
</g>
<!-- C -->
<g id="node3" class="node">
<title>C</title>
<ellipse fill="none" stroke="black" cx="301" cy="-22" rx="18" ry="18"/>
<text text-anchor="middle" x="301" y="-18.3" font-family="Times New Roman,serif" font-size="14.00">C</text>
</g>
<!-- C&#45;&gt;A -->
<g id="edge7" class="edge">
<title>C&#45;&gt;A</title>
<path fill="none" stroke="black" d="M282.9,-20C267.32,-18.28 243.65,-15.94 223,-15 207.02,-14.27 202.98,-14.27 187,-15 170.38,-15.75 151.81,-17.42 137.07,-18.93"/>
<polygon fill="black" stroke="black" points="127.1,-20 136.56,-14.46 132.07,-19.47 137.04,-18.94 137.04,-18.94 137.04,-18.94 132.07,-19.47 137.52,-23.41 127.1,-20 127.1,-20"/>
<text text-anchor="middle" x="205" y="-18.8" font-family="Times New Roman,serif" font-size="14.00">00R</text>
</g>
<!-- D -->
<g id="node5" class="node">
<title>D</title>
<ellipse fill="none" stroke="black" cx="401" cy="-22" rx="18" ry="18"/>
<ellipse fill="none" stroke="black" cx="401" cy="-22" rx="22" ry="22"/>
<text text-anchor="middle" x="401" y="-18.3" font-family="Times New Roman,serif" font-size="14.00">D</text>
</g>
<!-- C&#45;&gt;D -->
<g id="edge6" class="edge">
<title>C&#45;&gt;D</title>
<path fill="none" stroke="black" d="M319.07,-22C332.66,-22 352.04,-22 368.43,-22"/>
<polygon fill="black" stroke="black" points="378.68,-22 368.68,-26.5 373.68,-22 368.68,-22 368.68,-22 368.68,-22 373.68,-22 368.68,-17.5 378.68,-22 378.68,-22"/>
<text text-anchor="middle" x="349" y="-25.8" font-family="Times New Roman,serif" font-size="14.00">11R</text>
</g>
<!-- B&#45;&gt;C -->
<g id="edge5" class="edge">
<title>B&#45;&gt;C</title>
<path fill="none" stroke="black" d="M222.37,-50.9C236.66,-45.58 257.64,-37.77 274.18,-31.61"/>
<polygon fill="black" stroke="black" points="283.81,-28.03 276.01,-35.73 279.13,-29.77 274.44,-31.52 274.44,-31.52 274.44,-31.52 279.13,-29.77 272.87,-27.3 283.81,-28.03 283.81,-28.03"/>
<text text-anchor="middle" x="253" y="-46.8" font-family="Times New Roman,serif" font-size="14.00">00R</text>
</g>
<!-- B&#45;&gt;B -->
<g id="edge4" class="edge">
<title>B&#45;&gt;B</title>
<path fill="none" stroke="black" d="M196.64,-73.29C194.62,-83.39 197.41,-93 205,-93 209.86,-93 212.76,-89.06 213.68,-83.57"/>
<polygon fill="black" stroke="black" points="213.36,-73.29 218.17,-83.15 213.52,-78.29 213.67,-83.29 213.67,-83.29 213.67,-83.29 213.52,-78.29 209.17,-83.42 213.36,-73.29 213.36,-73.29"/>
<text text-anchor="middle" x="205" y="-96.8" font-family="Times New Roman,serif" font-size="14.00">11R</text>
</g>
</g>
</svg>
